<svg xmlns="http://www.w3.org/2000/svg" xmlns:xlink="http://www.w3.org/1999/xlink" width="500" zoomAndPan="magnify" viewBox="0 0 375 149.999998" height="200" preserveAspectRatio="xMidYMid meet" version="1.0"><defs><g/><clipPath id="2b912b60ae"><path d="M 10.25 59.171875 L 366.5 59.171875 L 366.5 135.671875 L 10.25 135.671875 Z M 10.25 59.171875 " clip-rule="nonzero"/></clipPath></defs><g fill="#000000" fill-opacity="1"><g transform="translate(34.558791, 106.319212)"><g><path d="M 78.203125 0 L 24.109375 0 C 19.546875 0 15.648438 -1.609375 12.421875 -4.828125 C 9.203125 -8.054688 7.59375 -11.953125 7.59375 -16.515625 L 16.609375 -16.515625 C 16.609375 -14.453125 17.34375 -12.6875 18.8125 -11.21875 C 20.28125 -9.75 22.046875 -9.015625 24.109375 -9.015625 L 78.203125 -9.015625 C 80.265625 -9.015625 82.03125 -9.75 83.5 -11.21875 C 84.96875 -12.6875 85.703125 -14.453125 85.703125 -16.515625 L 85.703125 -24.3125 C 85.703125 -26.375 84.96875 -28.140625 83.5 -29.609375 C 82.03125 -31.078125 80.265625 -31.8125 78.203125 -31.8125 L 24.109375 -31.8125 C 19.546875 -31.8125 15.648438 -33.421875 12.421875 -36.640625 C 9.203125 -39.867188 7.59375 -43.765625 7.59375 -48.328125 L 7.59375 -56.125 C 7.59375 -60.675781 9.203125 -64.566406 12.421875 -67.796875 C 15.648438 -71.023438 19.546875 -72.640625 24.109375 -72.640625 L 78.203125 -72.640625 C 82.765625 -72.640625 86.65625 -71.023438 89.875 -67.796875 C 93.101562 -64.566406 94.71875 -60.675781 94.71875 -56.125 L 85.703125 -56.125 C 85.703125 -58.1875 84.96875 -59.953125 83.5 -61.421875 C 82.03125 -62.890625 80.265625 -63.625 78.203125 -63.625 L 24.109375 -63.625 C 22.046875 -63.625 20.28125 -62.890625 18.8125 -61.421875 C 17.34375 -59.953125 16.609375 -58.1875 16.609375 -56.125 L 16.609375 -48.328125 C 16.609375 -46.265625 17.34375 -44.5 18.8125 -43.03125 C 20.28125 -41.5625 22.046875 -40.828125 24.109375 -40.828125 L 78.203125 -40.828125 C 82.765625 -40.828125 86.65625 -39.210938 89.875 -35.984375 C 93.101562 -32.765625 94.71875 -28.875 94.71875 -24.3125 L 94.71875 -16.515625 C 94.71875 -11.953125 93.101562 -8.054688 89.875 -4.828125 C 86.65625 -1.609375 82.765625 0 78.203125 0 Z M 78.203125 0 "/></g></g></g><g fill="#000000" fill-opacity="1"><g transform="translate(136.862864, 106.319212)"><g><path d="M 19.140625 0 L 10.125 0 L 10.125 -72.640625 L 92.75 -72.640625 L 92.75 -63.625 L 19.140625 -63.625 L 19.140625 -40.828125 L 84.234375 -40.828125 L 84.234375 -31.8125 L 19.140625 -31.8125 Z M 19.140625 0 "/></g></g></g><g fill="#000000" fill-opacity="1"><g transform="translate(237.191755, 106.319212)"><g><path d="M 74.71875 0 C 80.925781 0 86.234375 -2.203125 90.640625 -6.609375 C 95.046875 -11.015625 97.25 -16.328125 97.25 -22.546875 L 97.25 -50.140625 C 97.25 -56.359375 95.046875 -61.671875 90.640625 -66.078125 C 86.234375 -70.484375 80.925781 -72.6875 74.71875 -72.6875 L 10.125 -72.6875 L 10.125 0 Z M 74.71875 -9.015625 L 19.140625 -9.015625 L 19.140625 -63.671875 L 74.71875 -63.671875 C 78.457031 -63.671875 81.644531 -62.34375 84.28125 -59.6875 C 86.914062 -57.039062 88.234375 -53.859375 88.234375 -50.140625 L 88.234375 -22.546875 C 88.234375 -18.828125 86.914062 -15.640625 84.28125 -12.984375 C 81.644531 -10.335938 78.457031 -9.015625 74.71875 -9.015625 Z M 74.71875 -9.015625 "/></g></g></g><g clip-path="url(#2b912b60ae)"><path fill="#000000" d="M 366.347656 66.6875 C 366.347656 62.59375 363.070312 59.320312 358.980469 59.320312 C 354.886719 59.320312 351.609375 62.59375 351.609375 66.6875 C 351.609375 70.234375 354.203125 73.234375 357.613281 73.917969 L 357.613281 133.265625 L 18.980469 133.265625 L 18.980469 73.917969 C 22.390625 73.234375 24.984375 70.371094 24.984375 66.6875 C 24.984375 62.59375 21.710938 59.320312 17.617188 59.320312 C 13.523438 59.320312 10.25 62.59375 10.25 66.6875 C 10.25 70.371094 12.976562 73.371094 16.523438 73.917969 L 16.523438 135.585938 L 360.070312 135.585938 L 360.070312 73.917969 C 363.617188 73.507812 366.347656 70.371094 366.347656 66.6875 Z M 366.347656 66.6875 " fill-opacity="1" fill-rule="nonzero"/></g></svg>