<svg xmlns="http://www.w3.org/2000/svg" xmlns:xlink="http://www.w3.org/1999/xlink" width="500" zoomAndPan="magnify" viewBox="0 0 375 374.999991" height="500" preserveAspectRatio="xMidYMid meet" version="1.0"><defs><g/><clipPath id="edad3cf307"><path d="M 67.90625 83.015625 L 269.65625 83.015625 L 269.65625 284.765625 L 67.90625 284.765625 Z M 67.90625 83.015625 " clip-rule="nonzero"/></clipPath><clipPath id="8441da9b05"><path d="M 159.222656 136.246094 L 287 136.246094 L 287 234 L 159.222656 234 Z M 159.222656 136.246094 " clip-rule="nonzero"/></clipPath><clipPath id="f9f625e704"><path d="M 176.472656 136.246094 L 269.910156 136.246094 C 274.484375 136.246094 278.871094 138.0625 282.109375 141.296875 C 285.34375 144.53125 287.160156 148.921875 287.160156 153.496094 L 287.160156 216.234375 C 287.160156 220.808594 285.34375 225.195312 282.109375 228.429688 C 278.871094 231.664062 274.484375 233.484375 269.910156 233.484375 L 176.472656 233.484375 C 171.898438 233.484375 167.511719 231.664062 164.277344 228.429688 C 161.042969 225.195312 159.222656 220.808594 159.222656 216.234375 L 159.222656 153.496094 C 159.222656 148.921875 161.042969 144.53125 164.277344 141.296875 C 167.511719 138.0625 171.898438 136.246094 176.472656 136.246094 " clip-rule="nonzero"/></clipPath></defs><path fill="#000000" d="M 93.796875 -0.046875 C 42.023438 -0.046875 0.046875 41.929688 0.046875 93.703125 L 0.046875 281.203125 C 0.046875 332.976562 42.023438 374.953125 93.796875 374.953125 L 281.296875 374.953125 C 333.070312 374.953125 375.046875 332.976562 375.046875 281.203125 L 375.046875 93.703125 C 375.046875 41.929688 333.070312 -0.046875 281.296875 -0.046875 Z M 93.796875 -0.046875 " fill-opacity="1" fill-rule="nonzero"/><path fill="#ffffff" d="M 146.117188 186.785156 C 146.117188 187.265625 146.070312 187.746094 145.976562 188.214844 C 145.882812 188.6875 145.742188 189.148438 145.558594 189.59375 C 145.375 190.039062 145.148438 190.460938 144.878906 190.859375 C 144.613281 191.261719 144.308594 191.632812 143.96875 191.972656 C 143.628906 192.3125 143.257812 192.617188 142.855469 192.882812 C 142.457031 193.152344 142.035156 193.378906 141.589844 193.5625 C 141.144531 193.746094 140.683594 193.886719 140.210938 193.980469 C 139.742188 194.074219 139.261719 194.121094 138.78125 194.121094 C 138.300781 194.121094 137.824219 194.074219 137.351562 193.980469 C 136.878906 193.886719 136.421875 193.746094 135.976562 193.5625 C 135.53125 193.378906 135.109375 193.152344 134.707031 192.882812 C 134.308594 192.617188 133.9375 192.3125 133.597656 191.972656 C 133.253906 191.632812 132.953125 191.261719 132.683594 190.859375 C 132.417969 190.460938 132.191406 190.039062 132.007812 189.59375 C 131.820312 189.148438 131.683594 188.6875 131.589844 188.214844 C 131.496094 187.746094 131.449219 187.265625 131.449219 186.785156 C 131.449219 186.304688 131.496094 185.828125 131.589844 185.355469 C 131.683594 184.882812 131.820312 184.425781 132.007812 183.980469 C 132.191406 183.535156 132.417969 183.113281 132.683594 182.710938 C 132.953125 182.3125 133.253906 181.941406 133.597656 181.601562 C 133.9375 181.257812 134.308594 180.957031 134.707031 180.6875 C 135.109375 180.421875 135.53125 180.195312 135.976562 180.011719 C 136.421875 179.824219 136.878906 179.6875 137.351562 179.59375 C 137.824219 179.5 138.300781 179.453125 138.78125 179.453125 C 139.261719 179.453125 139.742188 179.5 140.210938 179.59375 C 140.683594 179.6875 141.144531 179.824219 141.589844 180.011719 C 142.035156 180.195312 142.457031 180.421875 142.855469 180.6875 C 143.257812 180.957031 143.628906 181.257812 143.96875 181.601562 C 144.308594 181.941406 144.613281 182.3125 144.878906 182.710938 C 145.148438 183.113281 145.375 183.535156 145.558594 183.980469 C 145.742188 184.425781 145.882812 184.882812 145.976562 185.355469 C 146.070312 185.828125 146.117188 186.304688 146.117188 186.785156 Z M 146.117188 186.785156 " fill-opacity="1" fill-rule="nonzero"/><path fill="#ffffff" d="M 176.03125 186.785156 C 176.03125 187.265625 175.984375 187.746094 175.890625 188.214844 C 175.796875 188.6875 175.65625 189.148438 175.472656 189.59375 C 175.289062 190.039062 175.0625 190.460938 174.796875 190.859375 C 174.527344 191.261719 174.222656 191.632812 173.882812 191.972656 C 173.542969 192.3125 173.171875 192.617188 172.773438 192.882812 C 172.371094 193.152344 171.949219 193.378906 171.503906 193.5625 C 171.058594 193.746094 170.601562 193.886719 170.128906 193.980469 C 169.65625 194.074219 169.179688 194.121094 168.699219 194.121094 C 168.214844 194.121094 167.738281 194.074219 167.265625 193.980469 C 166.792969 193.886719 166.335938 193.746094 165.890625 193.5625 C 165.445312 193.378906 165.023438 193.152344 164.621094 192.882812 C 164.222656 192.617188 163.851562 192.3125 163.511719 191.972656 C 163.171875 191.632812 162.867188 191.261719 162.597656 190.859375 C 162.332031 190.460938 162.105469 190.039062 161.921875 189.59375 C 161.738281 189.148438 161.597656 188.6875 161.503906 188.214844 C 161.410156 187.746094 161.363281 187.265625 161.363281 186.785156 C 161.363281 186.304688 161.410156 185.828125 161.503906 185.355469 C 161.597656 184.882812 161.738281 184.425781 161.921875 183.980469 C 162.105469 183.535156 162.332031 183.113281 162.597656 182.710938 C 162.867188 182.3125 163.171875 181.941406 163.511719 181.601562 C 163.851562 181.257812 164.222656 180.957031 164.621094 180.6875 C 165.023438 180.421875 165.445312 180.195312 165.890625 180.011719 C 166.335938 179.824219 166.792969 179.6875 167.265625 179.59375 C 167.738281 179.5 168.214844 179.453125 168.699219 179.453125 C 169.179688 179.453125 169.65625 179.5 170.128906 179.59375 C 170.601562 179.6875 171.058594 179.824219 171.503906 180.011719 C 171.949219 180.195312 172.371094 180.421875 172.773438 180.6875 C 173.171875 180.957031 173.542969 181.257812 173.882812 181.601562 C 174.222656 181.941406 174.527344 182.3125 174.796875 182.710938 C 175.0625 183.113281 175.289062 183.535156 175.472656 183.980469 C 175.65625 184.425781 175.796875 184.882812 175.890625 185.355469 C 175.984375 185.828125 176.03125 186.304688 176.03125 186.785156 Z M 176.03125 186.785156 " fill-opacity="1" fill-rule="nonzero"/><g clip-path="url(#edad3cf307)"><path fill="#ffffff" d="M 168.695312 82.957031 C 113 82.957031 67.851562 128.109375 67.851562 183.804688 C 67.851562 239.5 113 284.648438 168.695312 284.648438 C 224.390625 284.648438 269.542969 239.5 269.542969 183.804688 C 269.542969 128.109375 224.390625 82.957031 168.695312 82.957031 Z M 230.890625 205.773438 C 230.890625 220.21875 219.179688 231.925781 204.734375 231.925781 L 183.09375 231.925781 L 168.695312 256.867188 L 154.296875 231.925781 L 132.660156 231.925781 C 118.214844 231.925781 106.503906 220.214844 106.503906 205.769531 L 106.503906 162.175781 C 106.503906 147.730469 118.214844 136.019531 132.660156 136.019531 L 204.734375 136.019531 C 219.179688 136.019531 230.890625 147.730469 230.890625 162.175781 Z M 230.890625 205.773438 " fill-opacity="1" fill-rule="nonzero"/></g><path fill="#ffffff" d="M 205.945312 186.785156 C 205.945312 187.265625 205.898438 187.746094 205.804688 188.214844 C 205.710938 188.6875 205.570312 189.148438 205.386719 189.59375 C 205.203125 190.039062 204.976562 190.460938 204.710938 190.859375 C 204.441406 191.261719 204.136719 191.632812 203.796875 191.972656 C 203.457031 192.3125 203.085938 192.617188 202.6875 192.882812 C 202.285156 193.152344 201.863281 193.378906 201.417969 193.5625 C 200.972656 193.746094 200.515625 193.886719 200.042969 193.980469 C 199.570312 194.074219 199.09375 194.121094 198.609375 194.121094 C 198.128906 194.121094 197.652344 194.074219 197.179688 193.980469 C 196.707031 193.886719 196.25 193.746094 195.804688 193.5625 C 195.359375 193.378906 194.9375 193.152344 194.535156 192.882812 C 194.136719 192.617188 193.765625 192.3125 193.425781 191.972656 C 193.085938 191.632812 192.78125 191.261719 192.511719 190.859375 C 192.246094 190.460938 192.019531 190.039062 191.835938 189.59375 C 191.652344 189.148438 191.511719 188.6875 191.417969 188.214844 C 191.324219 187.746094 191.277344 187.265625 191.277344 186.785156 C 191.277344 186.304688 191.324219 185.828125 191.417969 185.355469 C 191.511719 184.882812 191.652344 184.425781 191.835938 183.980469 C 192.019531 183.535156 192.246094 183.113281 192.511719 182.710938 C 192.78125 182.3125 193.085938 181.941406 193.425781 181.601562 C 193.765625 181.257812 194.136719 180.957031 194.535156 180.6875 C 194.9375 180.421875 195.359375 180.195312 195.804688 180.011719 C 196.25 179.824219 196.707031 179.6875 197.179688 179.59375 C 197.652344 179.5 198.128906 179.453125 198.609375 179.453125 C 199.09375 179.453125 199.570312 179.5 200.042969 179.59375 C 200.515625 179.6875 200.972656 179.824219 201.417969 180.011719 C 201.863281 180.195312 202.285156 180.421875 202.6875 180.6875 C 203.085938 180.957031 203.457031 181.257812 203.796875 181.601562 C 204.136719 181.941406 204.441406 182.3125 204.710938 182.710938 C 204.976562 183.113281 205.203125 183.535156 205.386719 183.980469 C 205.570312 184.425781 205.710938 184.882812 205.804688 185.355469 C 205.898438 185.828125 205.945312 186.304688 205.945312 186.785156 Z M 205.945312 186.785156 " fill-opacity="1" fill-rule="nonzero"/><g clip-path="url(#8441da9b05)"><g clip-path="url(#f9f625e704)"><path fill="#000000" d="M 159.222656 136.246094 L 286.289062 136.246094 L 286.289062 233.414062 L 159.222656 233.414062 Z M 159.222656 136.246094 " fill-opacity="1" fill-rule="nonzero"/></g></g><g fill="#d9d9d9" fill-opacity="1"><g transform="translate(159.224348, 218.715402)"><g><path d="M 46.625 -37.5 L 46.625 -60.109375 L 58.46875 -60.109375 L 58.46875 0 L 46.625 0 L 46.625 -27.375 L 19.6875 -27.375 L 19.6875 0 L 7.8125 0 L 7.8125 -60.109375 L 19.6875 -60.109375 L 19.6875 -37.5 Z M 46.625 -37.5 "/></g></g></g><g fill="#d9d9d9" fill-opacity="1"><g transform="translate(225.540312, 218.715402)"><g><path d="M 57.6875 0 L 45.1875 0 L 40.65625 -13.859375 L 17.640625 -13.859375 L 13.109375 0 L 0.90625 0 L 21.671875 -60.109375 L 36.921875 -60.109375 Z M 28.578125 -47.5625 L 20.84375 -23.84375 L 37.375 -23.84375 L 29.609375 -47.5625 Z M 28.578125 -47.5625 "/></g></g></g><g fill="#d9d9d9" fill-opacity="1"><g transform="translate(284.126951, 218.715402)"><g><path d="M 32.9375 0 L 21.046875 0 L 21.046875 -23.59375 L 0.28125 -60.109375 L 13.03125 -60.109375 L 26.765625 -36.46875 L 27.796875 -36.46875 L 41.234375 -60.109375 L 53.703125 -60.109375 L 32.9375 -23.59375 Z M 32.9375 0 "/></g></g></g></svg>